<?xml version="1.0" encoding="utf-8"?>
<!-- Generator: Adobe Illustrator 16.0.0, SVG Export Plug-In . SVG Version: 6.00 Build 0)  -->
<!DOCTYPE svg PUBLIC "-//W3C//DTD SVG 1.1//EN" "http://www.w3.org/Graphics/SVG/1.1/DTD/svg11.dtd">
<svg version="1.1" id="Layer_1" xmlns="http://www.w3.org/2000/svg" xmlns:xlink="http://www.w3.org/1999/xlink" x="0px" y="0px"
	 width="416px" height="58px" viewBox="0 0 416 58" enable-background="new 0 0 416 58" xml:space="preserve">
<g id="Layer_x0020_1">
	<g id="_848301072">
		<polygon fill="#19A8F9" points="47,41 0,55 0,52 47,17 		"/>
		<polygon fill="#19A8F9" points="48,17 48,17 110,53 110,55 48,41 48,41 		"/>
		<polygon fill="#19A8F9" points="47,57 0,57 0,56 47,44 47,44 		"/>
		<path fill="#19A8F9" d="M47,42v1V42z"/>
		<polygon fill="#19A8F9" points="110,57 48,57 48,57 48,44 48,44 48,44 110,56 		"/>
		<polygon fill="#19A8F9" points="47,14 0,50 0,50 47,2 47,2 		"/>
		<polygon fill="#19A8F9" points="48,14 110,52 110,51 48,2 48,2 		"/>
	</g>
	<path fill="#FEFEFE" d="M136,57V22h10c3,0,5,0,7,1c2,0,3,1,5,2c2,2,4,4,5,6s1,5,1,9c0,5-1,10-4,13c-3,2-8,4-14,4H136z M143,51h4
		c3,0,6-1,7-3c2-1,3-4,3-8s-1-7-3-9c-1-2-4-3-7-3h-4V51z M173,57V22h23v6h-15v8h14v6h-14v9h15v6H173z M205,57V22h7v29h16v6H205z
		 M240,57V28h-10v-6h27v6h-10v29H240z M259,57l12-35h9l12,35h-8l-2-8l-2-5l-5-15l-5,15l-2,5l-2,8H259z M298,57V22h10v28h15v7H298z
		 M328,40c0-6,2-10,5-14c3-3,7-4,13-4c5,0,9,1,12,4c3,4,5,8,5,14c0,5-2,10-5,13s-7,5-12,5c-6,0-10-2-13-5S328,45,328,40z M338,40
		c0,3,1,6,2,8c1,1,3,2,6,2c2,0,4-1,5-2c2-2,2-5,2-8c0-4,0-7-2-9c-1-1-3-2-5-2c-3,0-5,1-6,2C339,33,338,36,338,40z M404,56
		c-2,0-5,1-7,1c-3,0-5,1-7,1c-6,0-11-2-14-5s-5-7-5-13s2-11,5-14s8-4,14-4c5,0,8,1,11,2c2,2,4,5,4,9h-10c0-2-1-3-2-3c0-1-2-2-3-2
		c-3,0-5,1-7,3c-1,2-2,5-2,9c0,3,1,6,2,8c2,2,4,3,8,3c1,0,1,0,2,0s2,0,3-1v-6h-7v-7h15V56z"/>
</g>
</svg>
