<?xml version="1.0" encoding="UTF-8" standalone="no"?>
<!-- Generator: Adobe Illustrator 15.1.0, SVG Export Plug-In . SVG Version: 6.00 Build 0)  -->

<svg
   xmlns:dc="http://purl.org/dc/elements/1.1/"
   xmlns:cc="http://creativecommons.org/ns#"
   xmlns:rdf="http://www.w3.org/1999/02/22-rdf-syntax-ns#"
   xmlns:svg="http://www.w3.org/2000/svg"
   xmlns="http://www.w3.org/2000/svg"
   xmlns:sodipodi="http://sodipodi.sourceforge.net/DTD/sodipodi-0.dtd"
   xmlns:inkscape="http://www.inkscape.org/namespaces/inkscape"
   version="1.1"
   id="Layer_1"
   x="0px"
   y="0px"
   width="416px"
   height="58px"
   viewBox="0 0 416 58"
   enable-background="new 0 0 416 58"
   xml:space="preserve"
   inkscape:version="0.91 r13725"
   sodipodi:docname="logo.svg"><metadata
   id="metadata17"><rdf:RDF><cc:Work
       rdf:about=""><dc:format>image/svg+xml</dc:format><dc:type
         rdf:resource="http://purl.org/dc/dcmitype/StillImage" /></cc:Work></rdf:RDF></metadata><defs
   id="defs15" /><sodipodi:namedview
   pagecolor="#ffffff"
   bordercolor="#666666"
   borderopacity="1"
   objecttolerance="10"
   gridtolerance="10"
   guidetolerance="10"
   inkscape:pageopacity="0"
   inkscape:pageshadow="2"
   inkscape:window-width="1680"
   inkscape:window-height="988"
   id="namedview13"
   showgrid="false"
   inkscape:zoom="0.92307692"
   inkscape:cx="42.791667"
   inkscape:cy="29"
   inkscape:window-x="-8"
   inkscape:window-y="-8"
   inkscape:window-maximized="1"
   inkscape:current-layer="Layer_1" />
<g
   id="g3">
	<polygon
   fill="#19A8F9"
   points="0,52 0,55 47,41 109,55 109,53 47,17  "
   id="polygon5" />
	<polygon
   fill="#19A8F9"
   points="0,56 0,57 47,57 109,57 109,56 47,44  "
   id="polygon7" />
	<polygon
   fill="#19A8F9"
   points="47,2 0,50 47,14 109,52 109,51  "
   id="polygon9" />
</g>
<path
   fill-rule="evenodd"
   clip-rule="evenodd"
   fill="#FFFFFF"
   d="M136,57.024V23.308h10.529c2.817,0,5.088,0.219,6.797,0.663  c1.709,0.447,3.287,1.155,4.737,2.147c2.077,1.451,3.646,3.365,4.714,5.753c1.07,2.38,1.6,5.168,1.6,8.351  c0,5.519-1.505,9.702-4.518,12.543s-7.462,4.261-13.331,4.261H136L136,57.024z M143.165,51.453h3.637  c3.473,0,6.026-0.897,7.649-2.701c1.623-1.795,2.435-4.628,2.435-8.484c0-3.949-0.812-6.837-2.435-8.679  c-1.624-1.834-4.176-2.755-7.649-2.755h-3.637V51.453L143.165,51.453z M173.514,57.024V23.308h22.377v5.574H180.82v7.961h14.134  v5.478H180.82v9.085h15.594v5.619H173.514L173.514,57.024z M205.316,57.024V23.308h7.165v28.003H227.7v5.714H205.316L205.316,57.024  z M240.302,57.024V28.787h-9.927v-5.479h27.113v5.479h-9.927v28.237H240.302L240.302,57.024z M259.14,57.024l12.24-33.717h8.506  l11.755,33.717h-7.345l-2.396-7.259l-1.765-5.525l-4.645-14.282l-5.096,14.282l-1.835,5.525l-2.629,7.259H259.14L259.14,57.024z   M298.528,57.024V23.308h9.319v27.208h14.984v6.509H298.528L298.528,57.024z M328.461,40.167c0-5.487,1.515-9.756,4.543-12.8  c3.021-3.054,7.259-4.574,12.705-4.574c5.426,0,9.655,1.521,12.676,4.574c3.028,3.044,4.543,7.313,4.543,12.8  c0,5.472-1.515,9.74-4.543,12.815c-3.021,3.066-7.25,4.605-12.676,4.605c-5.432,0-9.661-1.539-12.697-4.605  C329.976,49.907,328.461,45.639,328.461,40.167L328.461,40.167z M338.108,40.128c0,3.479,0.641,6.096,1.912,7.851  c1.271,1.757,3.169,2.631,5.683,2.631c2.504,0,4.385-0.874,5.643-2.631c1.256-1.755,1.889-4.371,1.889-7.851  c0-3.49-0.633-6.112-1.889-7.869c-1.258-1.755-3.139-2.628-5.643-2.628c-2.514,0-4.411,0.881-5.683,2.644  C338.749,34.031,338.108,36.653,338.108,40.128L338.108,40.128z M404.497,55.9c-2.786,0.563-5.41,0.984-7.852,1.266  c-2.45,0.28-4.776,0.422-6.985,0.422c-6.072,0-10.639-1.437-13.714-4.31c-3.066-2.871-4.604-7.142-4.604-12.792  c0-5.743,1.562-10.13,4.675-13.159c3.121-3.021,7.648-4.535,13.597-4.535c5.057,0,8.812,0.866,11.246,2.606  c2.443,1.741,3.73,4.458,3.864,8.163h-9.576c-0.071-1.317-0.609-2.38-1.601-3.167c-0.992-0.79-2.303-1.187-3.934-1.187  c-2.748,0-4.878,0.96-6.393,2.88c-1.521,1.921-2.279,4.612-2.279,8.094c0,3.651,0.828,6.406,2.482,8.258  c1.654,1.849,4.121,2.777,7.398,2.777c0.796,0,1.616-0.047,2.476-0.147c0.85-0.103,1.731-0.257,2.629-0.469v-6.174h-6.977v-6.416  h15.547V55.9z"
   id="path11"
   style="fill:#fbfbfb;fill-opacity:1" />
</svg>