<?xml version="1.0" encoding="UTF-8"?>
<!DOCTYPE svg PUBLIC "-//W3C//DTD SVG 1.1//EN" "http://www.w3.org/Graphics/SVG/1.1/DTD/svg11.dtd">
<!-- Creator: CorelDRAW X7 -->
<svg xmlns="http://www.w3.org/2000/svg" xml:space="preserve" width="416px" height="58px" version="1.1" style="shape-rendering:geometricPrecision; text-rendering:geometricPrecision; image-rendering:optimizeQuality; fill-rule:evenodd; clip-rule:evenodd"
viewBox="0 0 416 58"
 xmlns:xlink="http://www.w3.org/1999/xlink">
 <defs>
  <style type="text/css">
   <![CDATA[
    .fil0 {fill:#19A8F9}
    .fil1 {fill:#FEFEFE;fill-rule:nonzero}
   ]]>
  </style>
 </defs>
 <g id="Layer_x0020_1">
  <metadata id="CorelCorpID_0Corel-Layer"/>
  <g id="_848301072">
   <polygon class="fil0" points="48,41 1,55 1,52 48,17 "/>
   <polygon class="fil0" points="48,17 48,17 110,53 110,55 48,41 48,41 "/>
   <polygon class="fil0" points="48,57 1,57 1,56 48,44 48,44 "/>
   <polygon class="fil0" points="48,42 48,43 "/>
   <polygon class="fil0" points="110,57 48,57 48,57 48,44 48,44 48,44 110,56 "/>
   <polygon class="fil0" points="48,14 1,50 1,50 48,2 48,2 "/>
   <polygon class="fil0" points="48,14 110,52 110,51 48,2 48,2 "/>
  </g>
  <path class="fil1" d="M137 57l0 -35 10 0c3,0 5,0 7,1 2,0 3,1 5,2 2,2 4,4 5,6 1,2 1,5 1,9 0,5 -1,10 -4,13 -3,2 -8,4 -14,4l-10 0zm7 -6l4 0c3,0 6,-1 7,-3 2,-1 3,-4 3,-8 0,-4 -1,-7 -3,-9 -1,-2 -4,-3 -7,-3l-4 0 0 23zm30 6l0 -35 23 0 0 6 -15 0 0 8 14 0 0 6 -14 0 0 9 15 0 0 6 -23 0zm32 0l0 -35 7 0 0 29 16 0 0 6 -23 0zm35 0l0 -29 -10 0 0 -6 27 0 0 6 -10 0 0 29 -7 0zm19 0l12 -35 9 0 12 35 -8 0 -2 -8 -2 -5 -5 -15 -5 15 -2 5 -2 8 -7 0zm39 0l0 -35 10 0 0 28 15 0 0 7 -25 0zm30 -17c0,-6 2,-10 5,-14 3,-3 7,-4 13,-4 5,0 9,1 12,4 3,4 5,8 5,14 0,5 -2,10 -5,13 -3,3 -7,5 -12,5 -6,0 -10,-2 -13,-5 -3,-3 -5,-8 -5,-13zm10 0c0,3 1,6 2,8 1,1 3,2 6,2 2,0 4,-1 5,-2 2,-2 2,-5 2,-8 0,-4 0,-7 -2,-9 -1,-1 -3,-2 -5,-2 -3,0 -5,1 -6,2 -1,2 -2,5 -2,9zm66 16c-2,0 -5,1 -7,1 -3,0 -5,1 -7,1 -6,0 -11,-2 -14,-5 -3,-3 -5,-7 -5,-13 0,-6 2,-11 5,-14 3,-3 8,-4 14,-4 5,0 8,1 11,2 2,2 4,5 4,9l-10 0c0,-2 -1,-3 -2,-3 0,-1 -2,-2 -3,-2 -3,0 -5,1 -7,3 -1,2 -2,5 -2,9 0,3 1,6 2,8 2,2 4,3 8,3 1,0 1,0 2,0 1,0 2,0 3,-1l0 -6 -7 0 0 -7 15 0 0 19z"/>
 </g>
</svg>
